<svg width="61.5" height="36" viewBox="0 0 41 24" fill="none" xmlns="http://www.w3.org/2000/svg"><path fill-rule="evenodd" clip-rule="evenodd" d="M7.17064 15.4156C7.17064 16.1055 6.90273 16.7599 6.43606 17.2161C5.98168 17.6835 5.3516 17.9758 4.31427 17.9758H0V9.87388L3.67292 9.86206C4.7456 9.86206 5.23481 10.1189 5.71326 10.5987C6.17942 11.078 6.31926 11.6507 6.31926 12.3175C6.31926 12.8785 6.14458 13.2524 5.95812 13.4163C6.0744 13.4281 6.26138 13.4862 6.43606 13.6618C6.92578 14.1529 7.17064 14.7139 7.17064 15.4156ZM2.22578 11.7324V12.9134H3.36864C3.6135 12.9134 3.77691 12.8317 3.87014 12.7382C3.97464 12.6329 4.04482 12.4809 4.04482 12.3175C4.04482 11.9898 3.78818 11.7324 3.46187 11.7324H2.22578ZM4.70974 15.4156C4.70974 15.0766 4.42953 14.8074 4.10322 14.8074H2.22578V16.0469H3.95159C4.24307 16.0469 4.41826 15.9652 4.52276 15.8599C4.63956 15.7428 4.70974 15.5913 4.70974 15.4156Z" fill="#34404E"></path><path fill-rule="evenodd" clip-rule="evenodd" d="M32.3586 9.88251V14.8165C32.3586 15.7751 32.0205 16.617 31.3443 17.2838C30.6681 17.9619 29.8403 18.3122 28.8726 18.3122C27.9167 18.3122 27.1002 17.9619 26.4122 17.2838C25.736 16.617 25.3979 15.7751 25.3979 14.8165V9.88251H27.9167V14.8165C27.9167 15.3544 28.3476 15.7751 28.8726 15.7751C29.409 15.7751 29.8403 15.3544 29.8403 14.8165V9.88251H32.3586Z" fill="#34404E"></path><path fill-rule="evenodd" clip-rule="evenodd" d="M40.488 17.9754H38.0046L37.981 17.9872L35.3813 14.2341V17.9754H32.8743V9.8729L35.3813 9.86108L37.9697 13.5561V9.86108H40.488V17.9754Z" fill="#34404E"></path><path fill-rule="evenodd" clip-rule="evenodd" d="M24.6746 9.86108H21.5067L19.323 12.6669V9.86108H16.8047V13.9182V17.9754H19.323V15.1691L21.5067 17.9754H24.6746L21.6148 13.9182L24.6746 9.86108Z" fill="#34404E"></path><path fill-rule="evenodd" clip-rule="evenodd" d="M14.9298 17.017C14.0785 17.8589 13.0647 18.2914 11.8634 18.2914C10.6627 18.2914 9.64842 17.8589 8.79704 17.017C7.95745 16.1632 7.52612 15.1348 7.52612 13.942C7.52612 12.7379 7.95745 11.709 8.79704 10.867C9.64842 10.0133 10.6627 9.58075 11.8634 9.58075C13.0647 9.58075 14.0785 10.0133 14.9298 10.867C15.7812 11.709 16.2125 12.7379 16.2125 13.942C16.2125 15.1348 15.7812 16.1632 14.9298 17.017ZM13.1461 12.6557C12.7845 12.2936 12.3649 12.1179 11.8634 12.1179C11.3502 12.1179 10.9306 12.2936 10.569 12.6557C10.2196 13.0066 10.0444 13.4391 10.0444 13.942C10.0444 14.4449 10.2196 14.8774 10.569 15.2396C10.9306 15.5904 11.3502 15.7656 11.8634 15.7656C12.3649 15.7656 12.7845 15.5904 13.1461 15.2396C13.5191 14.8774 13.6938 14.4449 13.6938 13.942C13.6938 13.4391 13.5191 13.0066 13.1461 12.6557Z" fill="#34404E"></path><mask id="mask0_2_327" maskUnits="userSpaceOnUse" x="17" y="0" width="24" height="9" style="mask-type: alpha;"><path d="M40.4962 0H17.0562V8.67756H40.4962V0Z" fill="white"></path></mask><g mask="url(#mask0_2_327)"><path fill-rule="evenodd" clip-rule="evenodd" d="M39.4476 7.90624L35.3582 4.33916L32.4573 6.05233L34.3404 4.72905L29.1235 0L24.6202 4.58111L25.1571 3.74893L24.4537 3.06829L22.7766 4.48248L21.9339 4.21228L17.0562 8.67781H40.4962L39.4476 7.90624ZM35.4105 4.93505L36.6958 5.97835L35.9381 6.00044L35.3777 6.5989L35.3639 5.86791L32.6043 6.58348H32.5915L35.4105 4.93505ZM29.0856 0.948277L30.8964 3.35184C30.8964 3.35184 29.8939 2.81093 29.8284 2.88438C29.7628 2.95784 28.2194 4.87237 28.2194 4.87237L28.1323 3.74122L27.8249 4.36998L27.7814 3.80389L24.8681 5.26535L29.0856 0.948277ZM22.0563 4.69053L22.5502 5.20216L24.1551 3.9092L23.628 5.06141L23.4476 4.89138L21.7997 6.73245C21.7997 6.73245 21.7951 6.49205 21.793 6.40472C21.792 6.31688 21.2649 6.57321 21.2649 6.57321L21.7761 5.50935L20.7178 5.73692L22.0563 4.69053Z" fill="#1D57C7"></path></g><path fill-rule="evenodd" clip-rule="evenodd" d="M14.3695 6.84497L12.4962 8.67629H10.8308L12.4962 6.84497H14.3695Z" fill="#34404E"></path><path d="M0.0208873 22.0274C0.0556994 21.8213 0.125324 21.6409 0.22976 21.4864C0.336517 21.3293 0.465322 21.2079 0.616175 21.122C0.769348 21.0361 0.931805 20.9932 1.10354 20.9932C1.27064 20.9932 1.40873 21.0312 1.51781 21.1073C1.62689 21.1834 1.70231 21.279 1.74409 21.3944L1.80675 21.0263H2.12702L1.78934 23.0431H1.46907L1.53522 22.6677C1.45167 22.7855 1.34143 22.8836 1.2045 22.9622C1.06757 23.0382 0.91672 23.0762 0.751942 23.0762C0.60341 23.0762 0.472285 23.0431 0.358565 22.9769C0.244845 22.9082 0.156655 22.8113 0.0939928 22.6861C0.0313309 22.561 0 22.4162 0 22.2519C0 22.1783 0.00696244 22.1034 0.0208873 22.0274ZM1.63965 22.031C1.64894 21.9795 1.65358 21.9243 1.65358 21.8654C1.65358 21.6863 1.60252 21.5452 1.5004 21.4422C1.40061 21.3367 1.27296 21.2839 1.11747 21.2839C0.999108 21.2839 0.885389 21.3134 0.776311 21.3723C0.669554 21.4312 0.577882 21.517 0.501295 21.6299C0.424708 21.7428 0.37365 21.8752 0.348121 22.0274C0.338838 22.0789 0.334197 22.1353 0.334197 22.1967C0.334197 22.3782 0.384094 22.5217 0.483889 22.6272C0.583684 22.7303 0.711328 22.7818 0.866822 22.7818C0.985184 22.7818 1.09774 22.7524 1.2045 22.6935C1.31358 22.6322 1.40641 22.5451 1.483 22.4322C1.5619 22.3169 1.61412 22.1832 1.63965 22.031Z" fill="#646464"></path><path d="M5.28321 20.478L5.23795 20.7393H4.57652L4.19358 23.0431H3.87679L4.25973 20.7393H3.5983L3.64355 20.478H5.28321Z" fill="#646464"></path><path d="M5.83677 21.4091C5.91336 21.2766 6.00967 21.1735 6.12571 21.0999C6.24175 21.0263 6.37404 20.9895 6.52257 20.9895L6.46339 21.3355H6.37984C6.21506 21.3355 6.07698 21.3821 5.96558 21.4753C5.8565 21.5686 5.78339 21.7256 5.74626 21.9464L5.56176 23.0431H5.24497L5.58264 21.0263H5.89943L5.83677 21.4091Z" fill="#646464"></path><path d="M7.09714 20.6988C7.04608 20.6988 7.00314 20.6816 6.96833 20.6473C6.93584 20.6105 6.91959 20.5651 6.91959 20.5111C6.91959 20.4375 6.94512 20.3749 6.99618 20.3234C7.04724 20.2694 7.10642 20.2424 7.17372 20.2424C7.2271 20.2424 7.27004 20.2596 7.30253 20.294C7.33502 20.3283 7.35126 20.3737 7.35126 20.4301C7.35126 20.5037 7.32573 20.5675 7.27468 20.6215C7.22362 20.673 7.16444 20.6988 7.09714 20.6988ZM7.19809 21.0263L6.86041 23.0431H6.54362L6.8813 21.0263H7.19809Z" fill="#646464"></path><path d="M7.99213 21.398C8.07568 21.2827 8.18592 21.187 8.32285 21.111C8.45978 21.0325 8.60947 20.9932 8.77192 20.9932C8.92046 20.9932 9.05158 21.0263 9.1653 21.0926C9.28134 21.1564 9.37069 21.2496 9.43336 21.3723C9.49602 21.4925 9.52735 21.6348 9.52735 21.7992C9.52735 21.8703 9.52039 21.9464 9.50646 22.0274C9.47165 22.231 9.40086 22.4126 9.29411 22.572C9.18967 22.7315 9.06087 22.8554 8.90769 22.9438C8.75684 23.0321 8.5967 23.0762 8.42729 23.0762C8.26483 23.0762 8.1279 23.0382 8.0165 22.9622C7.90742 22.8836 7.82852 22.7867 7.77978 22.6714L7.56046 24H7.24367L7.738 21.0263H8.0548L7.99213 21.398ZM9.18271 22.0274C9.19199 21.9758 9.19663 21.9194 9.19663 21.8581C9.19663 21.679 9.14674 21.5391 9.04694 21.4385C8.94715 21.3355 8.81834 21.2839 8.66053 21.2839C8.54449 21.2839 8.43193 21.3146 8.32285 21.376C8.21377 21.4348 8.11978 21.5219 8.04087 21.6373C7.96428 21.7501 7.91323 21.8814 7.8877 22.031C7.87841 22.0826 7.87377 22.139 7.87377 22.2003C7.87377 22.3794 7.92367 22.5217 8.02346 22.6272C8.12558 22.7303 8.25438 22.7818 8.40988 22.7818C8.52824 22.7818 8.6408 22.7524 8.74756 22.6935C8.85663 22.6322 8.94947 22.5451 9.02605 22.4322C9.10496 22.3169 9.15718 22.1819 9.18271 22.0274Z" fill="#646464"></path><path d="M9.8016 22.0274C9.83642 21.8213 9.90604 21.6409 10.0105 21.4864C10.1172 21.3293 10.246 21.2079 10.3969 21.122C10.5501 21.0361 10.7125 20.9932 10.8843 20.9932C11.0514 20.9932 11.1894 21.0312 11.2985 21.1073C11.4076 21.1834 11.483 21.279 11.5248 21.3944L11.5875 21.0263H11.9077L11.5701 23.0431H11.2498L11.3159 22.6677C11.2324 22.7855 11.1221 22.8836 10.9852 22.9622C10.8483 23.0382 10.6974 23.0762 10.5327 23.0762C10.3841 23.0762 10.253 23.0431 10.1393 22.9769C10.0256 22.9082 9.93737 22.8113 9.87471 22.6861C9.81205 22.561 9.78072 22.4162 9.78072 22.2519C9.78072 22.1783 9.78768 22.1034 9.8016 22.0274ZM11.4204 22.031C11.4297 21.9795 11.4343 21.9243 11.4343 21.8654C11.4343 21.6863 11.3832 21.5452 11.2811 21.4422C11.1813 21.3367 11.0537 21.2839 10.8982 21.2839C10.7798 21.2839 10.6661 21.3134 10.557 21.3723C10.4503 21.4312 10.3586 21.517 10.282 21.6299C10.2054 21.7428 10.1544 21.8752 10.1288 22.0274C10.1196 22.0789 10.1149 22.1353 10.1149 22.1967C10.1149 22.3782 10.1648 22.5217 10.2646 22.6272C10.3644 22.7303 10.492 22.7818 10.6475 22.7818C10.7659 22.7818 10.8785 22.7524 10.9852 22.6935C11.0943 22.6322 11.1871 22.5451 11.2637 22.4322C11.3426 22.3169 11.3948 22.1832 11.4204 22.031Z" fill="#646464"></path><path d="M12.1541 22.0274C12.189 21.8213 12.2586 21.6409 12.363 21.4864C12.4698 21.3293 12.5997 21.2079 12.7529 21.122C12.9061 21.0361 13.0685 20.9932 13.2403 20.9932C13.3865 20.9932 13.5176 21.03 13.6337 21.1036C13.7497 21.1748 13.8321 21.2692 13.8808 21.387L14.0584 20.3197H14.3786L13.9226 23.0431H13.6023L13.6685 22.6641C13.5872 22.7843 13.4782 22.8836 13.3412 22.9622C13.2043 23.0382 13.0535 23.0762 12.8887 23.0762C12.7401 23.0762 12.609 23.0431 12.4953 22.9769C12.3816 22.9082 12.2922 22.8113 12.2272 22.6861C12.1646 22.561 12.1333 22.4162 12.1333 22.2519C12.1333 22.1783 12.1402 22.1034 12.1541 22.0274ZM13.7729 22.031C13.7822 21.9795 13.7868 21.9243 13.7868 21.8654C13.7868 21.6863 13.7358 21.5452 13.6337 21.4422C13.5339 21.3367 13.4062 21.2839 13.2507 21.2839C13.1324 21.2839 13.0186 21.3134 12.9096 21.3723C12.8028 21.4312 12.7111 21.517 12.6346 21.6299C12.558 21.7428 12.5069 21.8752 12.4814 22.0274C12.4721 22.0789 12.4675 22.1353 12.4675 22.1967C12.4675 22.3782 12.5174 22.5217 12.6171 22.6272C12.7169 22.7303 12.8446 22.7818 13.0001 22.7818C13.1184 22.7818 13.231 22.7524 13.3378 22.6935C13.4468 22.6322 13.5397 22.5451 13.6163 22.4322C13.6952 22.3169 13.7474 22.1832 13.7729 22.031Z" fill="#646464"></path><path d="M15.2203 22.7266L16.0976 21.0263H16.4388L15.3526 23.0431H14.9801L14.5693 21.0263H14.9105L15.2203 22.7266Z" fill="#646464"></path><path d="M16.9628 20.6988C16.9118 20.6988 16.8688 20.6816 16.834 20.6473C16.8015 20.6105 16.7853 20.5651 16.7853 20.5111C16.7853 20.4375 16.8108 20.3749 16.8619 20.3234C16.9129 20.2694 16.9721 20.2424 17.0394 20.2424C17.0928 20.2424 17.1357 20.2596 17.1682 20.294C17.2007 20.3283 17.217 20.3737 17.217 20.4301C17.217 20.5037 17.1914 20.5675 17.1404 20.6215C17.0893 20.673 17.0301 20.6988 16.9628 20.6988ZM17.0638 21.0263L16.7261 23.0431H16.4093L16.747 21.0263H17.0638Z" fill="#646464"></path><path d="M17.9379 23.0762C17.7383 23.0762 17.5747 23.0259 17.4471 22.9254C17.3194 22.8248 17.2556 22.6898 17.2556 22.5205C17.2556 22.4886 17.2568 22.4653 17.2591 22.4506H17.5689C17.5596 22.5561 17.5886 22.642 17.6559 22.7082C17.7256 22.7745 17.8253 22.8076 17.9553 22.8076C18.0853 22.8076 18.1897 22.7818 18.2686 22.7303C18.3499 22.6763 18.3905 22.6015 18.3905 22.5058C18.3905 22.4248 18.358 22.361 18.293 22.3144C18.228 22.2678 18.1282 22.2175 17.9936 22.1635C17.8752 22.1169 17.7778 22.0728 17.7012 22.031C17.6246 21.9893 17.5596 21.9317 17.5062 21.8581C17.4529 21.782 17.4262 21.6863 17.4262 21.571C17.4262 21.4581 17.4563 21.3576 17.5167 21.2692C17.5793 21.1809 17.6652 21.1134 17.7743 21.0668C17.8857 21.0177 18.0122 20.9932 18.1537 20.9932C18.3487 20.9932 18.5088 21.0447 18.6342 21.1478C18.7595 21.2508 18.8221 21.3858 18.8221 21.5526C18.8221 21.5845 18.821 21.609 18.8187 21.6262H18.5158L18.5193 21.5821C18.5193 21.4839 18.4833 21.4066 18.4114 21.3502C18.3417 21.2913 18.2489 21.2619 18.1329 21.2619C18.0191 21.2619 17.9251 21.2889 17.8509 21.3428C17.7789 21.3968 17.743 21.4692 17.743 21.56C17.743 21.6458 17.7766 21.7133 17.8439 21.7624C17.9112 21.8115 18.0157 21.8654 18.1572 21.9243C18.2756 21.9734 18.3707 22.0188 18.4427 22.0605C18.5146 22.0997 18.5761 22.1549 18.6272 22.2261C18.6782 22.2973 18.7038 22.3868 18.7038 22.4948C18.7038 22.6125 18.6701 22.7156 18.6028 22.8039C18.5378 22.8922 18.4473 22.9597 18.3313 23.0063C18.2152 23.0529 18.0841 23.0762 17.9379 23.0762Z" fill="#646464"></path><path d="M19.9238 23.0762C19.7637 23.0762 19.6221 23.0419 19.4991 22.9732C19.3784 22.902 19.2844 22.8039 19.2171 22.6788C19.1498 22.5512 19.1162 22.404 19.1162 22.2371C19.1162 22.009 19.1661 21.8004 19.2659 21.6115C19.3657 21.4201 19.5026 21.2692 19.6766 21.1588C19.853 21.0484 20.0491 20.9932 20.265 20.9932C20.4251 20.9932 20.5667 21.0288 20.6897 21.0999C20.815 21.1686 20.9113 21.2668 20.9786 21.3944C21.0482 21.5195 21.083 21.6667 21.083 21.836C21.083 22.0642 21.032 22.2727 20.9299 22.4616C20.8278 22.6506 20.6885 22.8002 20.5121 22.9106C20.3357 23.021 20.1396 23.0762 19.9238 23.0762ZM19.9621 22.7929C20.113 22.7929 20.2487 22.7499 20.3694 22.6641C20.4901 22.5757 20.5841 22.4604 20.6514 22.3181C20.721 22.1733 20.7558 22.0188 20.7558 21.8544C20.7558 21.6679 20.7048 21.5256 20.6026 21.4275C20.5005 21.3269 20.3729 21.2766 20.2197 21.2766C20.0689 21.2766 19.9342 21.3208 19.8159 21.4091C19.6975 21.495 19.6059 21.6103 19.5409 21.755C19.4759 21.8998 19.4434 22.0556 19.4434 22.2224C19.4434 22.404 19.4921 22.5451 19.5896 22.6457C19.6871 22.7438 19.8112 22.7929 19.9621 22.7929Z" fill="#646464"></path><path d="M21.9034 21.4091C21.98 21.2766 22.0763 21.1735 22.1923 21.0999C22.3084 21.0263 22.4407 20.9895 22.5892 20.9895L22.53 21.3355H22.4465C22.2817 21.3355 22.1436 21.3821 22.0322 21.4753C21.9231 21.5686 21.85 21.7256 21.8129 21.9464L21.6284 23.0431H21.3116L21.6493 21.0263H21.9661L21.9034 21.4091Z" fill="#646464"></path><path d="M23.6959 22.031C23.7307 21.8225 23.8003 21.6409 23.9047 21.4864C24.0115 21.3293 24.1426 21.2079 24.2981 21.122C24.4536 21.0361 24.6219 20.9932 24.8029 20.9932C25.0373 20.9932 25.2195 21.0533 25.3494 21.1735C25.4817 21.2938 25.5548 21.4606 25.5688 21.6741H25.2276C25.216 21.5514 25.1684 21.4545 25.0849 21.3833C25.0036 21.3122 24.8934 21.2766 24.7542 21.2766C24.5731 21.2766 24.4153 21.3428 24.2807 21.4753C24.1484 21.6054 24.0626 21.7906 24.0231 22.031C24.0115 22.112 24.0057 22.1795 24.0057 22.2335C24.0057 22.4126 24.0509 22.5512 24.1415 22.6493C24.232 22.745 24.3527 22.7929 24.5035 22.7929C24.6428 22.7929 24.7634 22.7585 24.8656 22.6898C24.97 22.6211 25.0501 22.523 25.1058 22.3954H25.4469C25.3634 22.6015 25.2346 22.7671 25.0605 22.8922C24.8864 23.0149 24.6845 23.0762 24.4548 23.0762C24.2157 23.0762 24.0254 23.0039 23.8839 22.8591C23.7446 22.7143 23.675 22.5168 23.675 22.2666C23.675 22.1905 23.6819 22.112 23.6959 22.031Z" fill="#646464"></path><path d="M26.6007 23.0762C26.4405 23.0762 26.299 23.0419 26.176 22.9732C26.0553 22.902 25.9613 22.8039 25.894 22.6788C25.8267 22.5512 25.793 22.404 25.793 22.2371C25.793 22.009 25.8429 21.8004 25.9427 21.6115C26.0425 21.4201 26.1794 21.2692 26.3535 21.1588C26.5299 21.0484 26.726 20.9932 26.9418 20.9932C27.102 20.9932 27.2435 21.0288 27.3665 21.0999C27.4919 21.1686 27.5882 21.2668 27.6555 21.3944C27.7251 21.5195 27.7599 21.6667 27.7599 21.836C27.7599 22.0642 27.7089 22.2727 27.6067 22.4616C27.5046 22.6506 27.3654 22.8002 27.189 22.9106C27.0126 23.021 26.8165 23.0762 26.6007 23.0762ZM26.639 22.7929C26.7898 22.7929 26.9256 22.7499 27.0463 22.6641C27.1669 22.5757 27.2609 22.4604 27.3282 22.3181C27.3979 22.1733 27.4327 22.0188 27.4327 21.8544C27.4327 21.6679 27.3816 21.5256 27.2795 21.4275C27.1774 21.3269 27.0497 21.2766 26.8966 21.2766C26.7457 21.2766 26.6111 21.3208 26.4927 21.4091C26.3744 21.495 26.2827 21.6103 26.2177 21.755C26.1527 21.8998 26.1203 22.0556 26.1203 22.2224C26.1203 22.404 26.169 22.5451 26.2665 22.6457C26.3639 22.7438 26.4881 22.7929 26.639 22.7929Z" fill="#646464"></path><path d="M30.6272 20.9895C30.8222 20.9895 30.9776 21.046 31.0937 21.1588C31.2121 21.2692 31.2712 21.4312 31.2712 21.6446C31.2712 21.7231 31.2654 21.7931 31.2538 21.8544L31.0554 23.0431H30.7421L30.9336 21.9022C30.9428 21.8507 30.9475 21.7955 30.9475 21.7366C30.9475 21.587 30.9092 21.4741 30.8326 21.398C30.7583 21.3195 30.6527 21.2803 30.5158 21.2803C30.358 21.2803 30.2222 21.3318 30.1085 21.4348C29.9971 21.5354 29.9205 21.6814 29.8787 21.8728L29.6803 23.0431H29.367L29.5585 21.9022C29.5678 21.8458 29.5724 21.7894 29.5724 21.7329C29.5724 21.5857 29.5341 21.4741 29.4575 21.398C29.3833 21.3195 29.2777 21.2803 29.1407 21.2803C28.976 21.2803 28.8355 21.3367 28.7195 21.4496C28.6035 21.56 28.528 21.7207 28.4932 21.9317V21.9243L28.3052 23.0431H27.9884L28.3261 21.0263H28.6429L28.5942 21.3171C28.6731 21.2116 28.7706 21.1306 28.8866 21.0742C29.0026 21.0177 29.1245 20.9895 29.2521 20.9895C29.4123 20.9895 29.5469 21.0276 29.6559 21.1036C29.7673 21.1797 29.8405 21.2913 29.8753 21.4385C29.9542 21.2962 30.0609 21.1858 30.1955 21.1073C30.3325 21.0288 30.4764 20.9895 30.6272 20.9895Z" fill="#646464"></path><path d="M32.1669 21.398C32.2504 21.2827 32.3606 21.187 32.4976 21.111C32.6345 21.0325 32.7842 20.9932 32.9466 20.9932C33.0952 20.9932 33.2263 21.0263 33.34 21.0926C33.4561 21.1564 33.5454 21.2496 33.6081 21.3723C33.6707 21.4925 33.7021 21.6348 33.7021 21.7992C33.7021 21.8703 33.6951 21.9464 33.6812 22.0274C33.6464 22.231 33.5756 22.4126 33.4688 22.572C33.3644 22.7315 33.2356 22.8554 33.0824 22.9438C32.9316 23.0321 32.7714 23.0762 32.602 23.0762C32.4396 23.0762 32.3026 23.0382 32.1912 22.9622C32.0821 22.8836 32.0032 22.7867 31.9545 22.6714L31.7352 24H31.4184L31.9127 21.0263H32.2295L32.1669 21.398ZM33.3574 22.0274C33.3667 21.9758 33.3714 21.9194 33.3714 21.8581C33.3714 21.679 33.3215 21.5391 33.2217 21.4385C33.1219 21.3355 32.9931 21.2839 32.8352 21.2839C32.7192 21.2839 32.6066 21.3146 32.4976 21.376C32.3885 21.4348 32.2945 21.5219 32.2156 21.6373C32.139 21.7501 32.0879 21.8814 32.0624 22.031C32.0531 22.0826 32.0485 22.139 32.0485 22.2003C32.0485 22.3794 32.0984 22.5217 32.1982 22.6272C32.3003 22.7303 32.4291 22.7818 32.5846 22.7818C32.703 22.7818 32.8155 22.7524 32.9223 22.6935C33.0314 22.6322 33.1242 22.5451 33.2008 22.4322C33.2797 22.3169 33.3319 22.1819 33.3574 22.0274Z" fill="#646464"></path><path d="M33.9763 22.0274C34.0111 21.8213 34.0808 21.6409 34.1852 21.4864C34.292 21.3293 34.4208 21.2079 34.5716 21.122C34.7248 21.0361 34.8872 20.9932 35.059 20.9932C35.2261 20.9932 35.3642 21.0312 35.4732 21.1073C35.5823 21.1834 35.6578 21.279 35.6995 21.3944L35.7622 21.0263H36.0825L35.7448 23.0431H35.4245L35.4907 22.6677C35.4071 22.7855 35.2969 22.8836 35.1599 22.9622C35.023 23.0382 34.8722 23.0762 34.7074 23.0762C34.5588 23.0762 34.4277 23.0431 34.314 22.9769C34.2003 22.9082 34.1121 22.8113 34.0494 22.6861C33.9868 22.561 33.9554 22.4162 33.9554 22.2519C33.9554 22.1783 33.9624 22.1034 33.9763 22.0274ZM35.5951 22.031C35.6044 21.9795 35.609 21.9243 35.609 21.8654C35.609 21.6863 35.558 21.5452 35.4558 21.4422C35.356 21.3367 35.2284 21.2839 35.0729 21.2839C34.9545 21.2839 34.8408 21.3134 34.7317 21.3723C34.625 21.4312 34.5333 21.517 34.4567 21.6299C34.3801 21.7428 34.3291 21.8752 34.3036 22.0274C34.2943 22.0789 34.2896 22.1353 34.2896 22.1967C34.2896 22.3782 34.3395 22.5217 34.4393 22.6272C34.5391 22.7303 34.6668 22.7818 34.8223 22.7818C34.9406 22.7818 35.0532 22.7524 35.1599 22.6935C35.269 22.6322 35.3618 22.5451 35.4384 22.4322C35.5173 22.3169 35.5696 22.1832 35.5951 22.031Z" fill="#646464"></path><path d="M37.5543 20.9895C37.7515 20.9895 37.9093 21.046 38.0277 21.1588C38.1461 21.2692 38.2052 21.4312 38.2052 21.6446C38.2052 21.7231 38.1994 21.7931 38.1878 21.8544L37.9894 23.0431H37.6761L37.8676 21.9022C37.8768 21.8507 37.8815 21.7967 37.8815 21.7403C37.8815 21.5906 37.842 21.4765 37.7631 21.398C37.6865 21.3195 37.5786 21.2803 37.4394 21.2803C37.2723 21.2803 37.1295 21.3355 37.0112 21.4459C36.8951 21.5563 36.8197 21.717 36.7849 21.928V21.9206L36.5969 23.0431H36.2801L36.6178 21.0263H36.9346L36.8859 21.3171C36.9648 21.2116 37.0634 21.1306 37.1818 21.0742C37.3001 21.0177 37.4243 20.9895 37.5543 20.9895Z" fill="#646464"></path><path d="M38.9699 21.0263L39.2936 22.653L40.1605 21.0263H40.4877L38.8446 23.9926H38.5138L39.0534 23.021L38.6183 21.0263H38.9699Z" fill="#646464"></path></svg>