<svg width="20" height="20" viewBox="0 0 20 21" fill="none" xmlns="http://www.w3.org/2000/svg"><path d="M0 16C0 16.88 0.39 17.67 1 18.22V20C1 20.55 1.45 21 2 21H3C3.55 21 4 20.55 4 20V19H12V20C12 20.55 12.45 21 13 21H14C14.55 21 15 20.55 15 20V18.22C15.61 17.67 16 16.88 16 16V6C16 2.5 12.42 2 8 2C3.58 2 0 2.5 0 6V16ZM3.5 17C2.67 17 2 16.33 2 15.5C2 14.67 2.67 14 3.5 14C4.33 14 5 14.67 5 15.5C5 16.33 4.33 17 3.5 17ZM12.5 17C11.67 17 11 16.33 11 15.5C11 14.67 11.67 14 12.5 14C13.33 14 14 14.67 14 15.5C14 16.33 13.33 17 12.5 17ZM14 11H2V6H14V11Z" fill="#1D57C7"></path><circle cx="14" cy="6" r="5.5" transform="rotate(90 14 6)" fill="#1D57C7" stroke="white"></circle><path d="M14.5 4.99502L14.5 8.50012L13.4999 8.50012L13.4999 4.99502L11.9999 4.99502L13.9999 2.99997L16 4.99502L14.5 4.99502Z" fill="white"></path></svg>