<svg width="15" height="16" viewBox="0 0 15 16" fill="none" xmlns="http://www.w3.org/2000/svg"><path fill-rule="evenodd" clip-rule="evenodd" d="M11 5V4.5C11 2.567 9.433 1 7.5 1C5.567 1 4 2.567 4 4.5V5H11ZM3 4.5V5H2C0.895431 5 0 5.89543 0 7V14C0 15.1046 0.89543 16 2 16H13C14.1046 16 15 15.1046 15 14V7C15 5.89543 14.1046 5 13 5H12V4.5C12 2.01472 9.98528 0 7.5 0C5.01472 0 3 2.01472 3 4.5ZM11 6H12H13C13.5523 6 14 6.44772 14 7V14C14 14.5523 13.5523 15 13 15H2C1.44772 15 1 14.5523 1 14V7C1 6.44772 1.44772 6 2 6H3H4H11ZM7.5 8C7.22386 8 7 8.22386 7 8.5V12.5C7 12.7761 7.22386 13 7.5 13C7.77614 13 8 12.7761 8 12.5V8.5C8 8.22386 7.77614 8 7.5 8Z" fill="#85919B"></path></svg>