<svg width="20" height="12" viewBox="0 0 25 15" fill="none"
    xmlns="http://www.w3.org/2000/svg" style="margin-right: 4px;">
    <path d="M8.46831 8.68321C8.46831 9.8269 7.47627 10.7539 6.2523 10.7539C5.02833 10.7539 4.03628 9.8269 4.03628 8.68321C4.03628 7.53952 5.02833 6.61255 6.2523 6.61255C7.47627 6.61255 8.46831 7.53952 8.46831 8.68321ZM18.7449 6.61255C17.5209 6.61196 16.5282 7.53834 16.5276 8.68203C16.5269 9.82572 17.5183 10.7533 18.7423 10.7539C19.9663 10.7545 20.959 9.82809 20.9596 8.6844C20.9596 8.6841 20.9596 8.68351 20.9596 8.68321C20.9596 7.54012 19.9682 6.61315 18.7449 6.61255ZM24.9937 8.68321C24.9937 11.9067 22.1947 14.5198 18.7449 14.5198C17.1708 14.5219 15.6547 13.9667 14.501 12.9661L12.4998 15L10.4974 12.964C9.34375 13.9659 7.8267 14.5219 6.25166 14.5198C2.80186 14.5198 0.00538636 11.9067 0.00538636 8.68321C0.00348529 7.04096 0.743952 5.47449 2.04397 4.36958L0 2.29152H4.54229C9.34787 -0.763841 15.6635 -0.763841 20.4691 2.29152H25L22.9557 4.36958C24.2554 5.47479 24.9956 7.04125 24.9937 8.68321ZM10.4796 8.68321C10.48 6.50153 8.58744 4.73315 6.25261 4.73285C3.91778 4.73256 2.02527 6.50094 2.02495 8.68262C2.02464 10.8643 3.91715 12.6327 6.25198 12.633H6.2523C8.58681 12.6327 10.4793 10.8646 10.4796 8.68321ZM17.1907 2.78654C14.1883 1.61739 10.8107 1.61739 7.80832 2.78654C10.4765 3.73986 12.4998 5.9701 12.4998 8.56953C12.4998 5.97039 14.5229 3.74016 17.1907 2.78654ZM22.9719 8.68321C22.9719 6.50183 21.0794 4.73345 18.7449 4.73345C16.4103 4.73345 14.5178 6.50183 14.5178 8.68321C14.5178 10.8646 16.4103 12.633 18.7449 12.633C21.0794 12.6327 22.9716 10.8646 22.9719 8.68321Z" fill="#34404E"></path>
</svg>